<?xml version="1.0" encoding="utf-8"?>
<!-- Generator: Adobe Illustrator 16.0.0, SVG Export Plug-In . SVG Version: 6.00 Build 0)  -->
<!DOCTYPE svg PUBLIC "-//W3C//DTD SVG 1.1//EN" "http://www.w3.org/Graphics/SVG/1.1/DTD/svg11.dtd">
<svg version="1.1" id="Layer_1" xmlns="http://www.w3.org/2000/svg" xmlns:xlink="http://www.w3.org/1999/xlink" x="0px" y="0px"
	 width="50px" height="50px" viewBox="0 0 50 50" enable-background="new 0 0 50 50" xml:space="preserve">
<path fill="#353535" d="M28,4v4h11.188L28.094,19.094C25.566,17.158,22.416,16,19,16c-8.261,0-15,6.739-15,15s6.739,15,15,15
	c8.262,0,15-6.739,15-15c0-3.416-1.158-6.567-3.094-9.094L42,10.813V22h4V6V4h-2H28z M19,20c6.099,0,11,4.901,11,11s-4.901,11-11,11
	c-6.099,0-11-4.901-11-11S12.901,20,19,20z"/>
</svg>
