<?xml version="1.0" encoding="utf-8"?>
<!-- Generator: Adobe Illustrator 16.0.0, SVG Export Plug-In . SVG Version: 6.00 Build 0)  -->
<!DOCTYPE svg PUBLIC "-//W3C//DTD SVG 1.1//EN" "http://www.w3.org/Graphics/SVG/1.1/DTD/svg11.dtd">
<svg version="1.1" id="Layer_1" xmlns="http://www.w3.org/2000/svg" xmlns:xlink="http://www.w3.org/1999/xlink" x="0px" y="0px"
	 width="50px" height="50px" viewBox="0 0 50 50" enable-background="new 0 0 50 50" xml:space="preserve">
<path fill="#353535" d="M25,1c-8.261,0-15,6.739-15,15c0,7.584,5.677,13.894,13,14.875V36h-7v4h7v7h4v-7h7v-4h-7v-5.125
	C34.322,29.894,40,23.584,40,16C40,7.739,33.261,1,25,1z M25,5c6.099,0,11,4.901,11,11s-4.901,11-11,11s-11-4.901-11-11
	S18.901,5,25,5z"/>
</svg>
